<?xml version="1.0" encoding="utf-8"?>
<!-- Generator: Adobe Illustrator 26.3.1, SVG Export Plug-In . SVG Version: 6.00 Build 0)  -->
<svg version="1.1" id="Capa_1" xmlns="http://www.w3.org/2000/svg" xmlns:xlink="http://www.w3.org/1999/xlink" x="0px" y="0px"
	 viewBox="0 0 531.3 507.1" style="enable-background:new 0 0 531.3 507.1;" xml:space="preserve">
<style type="text/css">
	.st0{fill:#FFFFFF;}
</style>
<g>
	<path class="st0" d="M16,292c-0.2-19.4,1.5-38.9,4.9-58c2.5-13.3,5.3-26.6,8.3-39.8c2.7-12.2,5.7-24.3,8.6-36.4
		c0.7-2.4,1.5-4.7,2.4-7c2.7-6.9,8.1-10.4,15.1-11.5c6-1,11.8,0,17.5,1.8c6.2,2,9.2,6.6,9.7,12.9c0.6,7.1-0.8,14.3-4.1,20.6
		c-4.9,9.5-10,18.9-15,28.4c-8.6,16.4-16.5,33.2-22.3,50.9c-4.2,12.8-7.3,25.8-7.9,39.2c-0.3,7.6,0,15.2,0.5,22.8
		c0.4,8.4,1.8,16.7,4.1,24.8c1.3,5.1,3.5,9.9,6.5,14.3c3,4.2,6.7,7.3,12,8.2c4.1,0.9,8.3-0.2,11.4-3c4.2-3.7,6.8-8.4,8.8-13.4
		c2.8-7.5,4.6-15.4,5.4-23.4c1.9-16.8,1.1-33.7-0.5-50.5c-0.4-4.7-1.5-9.3-0.6-14c0.5-2.8,1.2-5.5,2.4-8c2.6-5.6,7.5-8.2,13.4-8.9
		c1.3-0.2,2.6-0.3,3.9-0.2c4.3-0.1,8.2,2.4,9.8,6.4c1.4,3.2,2.1,6.6,2.2,10c0.2,6.8,0.1,13.5,0.1,20.3c0,4.9,0,9.8,1.3,14.5
		c0.3,1.1,0.7,2.2,1.3,3.3c1.8,3.7,6.2,5.3,9.9,3.5c0.5-0.3,1-0.6,1.5-0.9c2.2-1.7,3.9-3.8,5.1-6.3c2.5-4.7,4.4-9.8,5.7-15
		c2.5-10,4.2-20.2,5.1-30.5c0.9-9.7,1.2-19.4,1.2-29.1c-0.2-14-1.8-27.9-4.7-41.6c-1.5-7.6-3-15.2-4.2-22.8
		c-0.4-3.1-0.5-6.2-0.1-9.3c0.5-5.9,4.1-9.5,10.4-10.5c6.4-1.1,13-0.6,19.1,1.7c8.1,3.1,12.7,9.3,15.1,17.4s2.8,16.6,2.4,25
		c-0.7,16.2-2.3,32.3-4.4,48.4c-2.4,18.6-5.8,37.1-11.5,55c-3.2,10-7.2,19.7-13.2,28.4c-2.5,3.7-5.6,7-9.1,9.8
		c-13.1,10.1-27.6,4.5-34.9-4.2c-0.4-0.5-0.9-1.1-1.3-1.7c-0.6-0.9-1.7-1.2-2.6-0.7c-0.7,0.6-1.3,1.3-1.7,2.2c-0.2,0.3,0,0.7,0,1.1
		c0.5,13.6,0.1,27.2-1.2,40.7c-1.2,12.5-3.2,24.9-7.6,36.7c-2,6-5.2,11.5-9.2,16.3c-8.3,9.3-20.3,11.5-31.3,5.5
		c-4.9-2.8-9.1-6.5-12.4-11.1c-6.2-8.1-10.2-17.4-13.5-26.9c-4.1-12.5-7.1-25.4-8.8-38.5C17,323.1,15.9,307.6,16,292z M176.2,177.7
		h0.4c-0.4-5.2-0.7-10.5-1.3-15.7c-0.5-5.1-1.8-10.1-3.7-14.8c-0.5-1.1-1.1-1.8-2.4-1.3c-1,0.4-1.2,1.3-0.7,2.6
		c1.9,5,3.2,10.3,3.7,15.7c0.9,7,1.1,14.1,0.6,21.1c-0.1,1.5,0.5,2.3,1.5,2.4s1.8-0.7,1.8-2.3C176.2,182.8,176.2,180.2,176.2,177.7z
		 M175.4,196.1c-0.5-0.4-1-1.1-1.6-1.3c-1-0.3-1.7,0.4-1.8,1.5c-0.6,3.9-1.1,7.8-1.7,11.7c-0.2,0.8,0.3,1.7,1.1,2c0.1,0,0.1,0,0.2,0
		c0.8,0.2,1.7-0.2,1.9-1c0-0.1,0.1-0.2,0.1-0.3C174.2,204.6,174.7,200.6,175.4,196.1z"/>
	<path class="st0" d="M401.1,456.8c19.6-0.1,34.6-8.5,45-25.1c5.5-8.9,8.8-18.7,11.2-28.9c0.1-0.3,0.2-0.6,0.3-1
		c0.4-1.8,2.1-2.9,3.9-2.8c1.8,0.3,3,1.9,2.8,3.7c-0.1,2.9-0.7,5.8-0.9,8.7c-0.7,9-1.5,18.1,0.6,27.1c0.9,4,2.7,7.7,5.3,11
		c2.8,3.7,2.3,8.2-1.3,10.9c-15.3,11.6-32.2,20.2-51.1,24.2c-16.8,3.5-33.1,2.3-48.6-5.5c-11.2-5.7-20-14.2-27.4-24.3
		c-7.9-10.9-13.6-23-18.6-35.5c-2.1-5.4-4.2-10.9-6.2-16.3c-1.3-3.7-3.4-7.1-6.1-10c-0.7-0.7-1.4-1.3-2.2-1.8
		c-2.7-1.7-5.1-1.1-6.6,1.7c-1.4,2.4-2.1,5.2-2,8c0.4,5.7,0.7,11.4,1.5,17.1c2.7,18.5,6.6,36.8,11.1,55c2.7,11.2-6.8,21.2-18.4,18
		c-8.8-2.4-15-10.2-15.4-19.3c-0.6-15.7-0.1-31.4,0.8-47c0.9-14.4,1.8-28.8,2.9-43.1c1-12.9,2.3-25.8,3.5-38.7
		c1.2-11.8,2.5-23.6,3.7-35.4c0-2.2,1.9-4,4.1-3.9c0,0,0,0,0.1,0c1.5-0.1,2.9-0.1,4.4,0c2.1,0.2,2.9,1.4,2.6,3.5
		c-0.2,1.4-0.5,2.9-0.6,4.3c-0.1,0.7,0.2,1.4,0.7,1.9c0.8,0.6,1.3-0.2,1.8-0.8c3.9-4.8,9-7.7,14.8-9.7c6-2.1,12.2-3.1,18.5-1.9
		c8.7,1.6,14.5,7.7,15.5,16.5c1.2,10.1-1,19.6-5,28.8c-5.5,12.6-14,22.9-24.1,32c-4.7,4.2-5.1,9.5-1.2,14.4
		c8,10.1,15.8,20.3,23.7,30.5c5.3,7.1,11.4,13.6,18.1,19.4C373.5,452.1,385.9,456.6,401.1,456.8z M323.7,311.8v0.2
		c-0.3,0-0.6,0-0.9,0c-0.9,0-1.9,0.1-2.8,0.2c-9.1,0.9-16,5.1-20,13.5c-0.9,2.2-1.7,4.5-2.2,6.8c-1.5,5.4-2.4,10.9-1.6,16.5
		c0.8,5.2,3.4,8,8.5,9.2c5.5,1.2,11.2,0.2,15.9-2.8c7.5-4.4,12.5-10.9,16-18.8c2-4.2,2.9-8.9,2.5-13.5c-0.4-5.2-3.6-9.1-8.7-10.3
		C328.3,312.2,326,312.1,323.7,311.8L323.7,311.8z M344.6,319.2h-0.2c-0.1,0.8-0.1,1.7,0,2.5c0.1,0.5,0.6,0.9,1,1.3
		c0.4-0.4,1.1-0.7,1.1-1.1c0.3-4.2,0-8.3-2.1-12c-2.5-4.5-6.5-6.6-11.5-6.8c-0.5,0-0.9,0.6-1.4,1c0.4,0.4,0.8,0.8,1.3,1.1
		c0.4,0.1,0.9,0.2,1.4,0.2c4.3,0.4,7.9,3.3,9.1,7.5C343.9,315,344.3,317.1,344.6,319.2z M327.7,303.2v-0.1c-1.6,0.3-3.2,0.5-4.8,0.9
		c-0.4,0.1-0.7,0.8-1,1.2c0.5,0.3,0.9,0.9,1.4,0.9c1.8-0.1,3.6-0.3,5.4-0.7c0.5-0.2,0.8-0.6,1-1.1c0-0.4-0.6-0.8-1-1.1
		C328.3,303,327.9,303.2,327.7,303.2L327.7,303.2z"/>
	<path class="st0" d="M253.1,125.6c0.1-13.4-2-26.5-4.8-39.6c-2.9-13.5-5-27.1-5.2-40.9c-0.1-6.2,0.3-12.3,2.2-18.2
		c0.6-1.8,1.4-3.5,2.3-5.1c2.1-3.8,6.2-6.2,10.6-6.3c5.7-0.2,11.3-0.2,16.8,1.5s9.4,4.8,9.9,10.8c0.1,2.7-0.1,5.4-0.6,8.1
		c-1.8,12.7-3.8,25.3-5.5,38c-1.5,11.2-2.9,22.4-4.1,33.6c-1.1,10.1-2.1,20.3-2.9,30.4s-1.4,20.1-2.3,30.1
		c-0.5,3.9-1.3,7.7-2.5,11.4c-0.4,1.3-1.1,2.6-2,3.7c-1.6,2.2-3.7,2.6-5.9,1.1c-1.6-1.1-3-2.4-4.1-4c-2.7-3.9-5.1-8-7.2-12.2
		c-5.8-12.1-10.6-24.7-14.4-37.5c-0.4-1.2-0.8-2.3-1.2-3.4c-0.5-1.4-1.9-2.4-3.4-2.3c-1.3,0-2.5,0.8-2.8,2.1
		c-1.2,3.3-2.2,6.6-3,10.1c-1.1,5.8-1.6,11.6-2.7,17.4c-0.6,3-1.5,5.9-2.5,8.8c-0.4,1.1-0.9,2.2-1.6,3.1c-2.3,3.4-5.2,4-8.3,1.2
		c-2.1-2-4-4.2-5.5-6.7c-2.6-4.3-5-8.8-7.1-13.4c-10.5-21.9-19.2-44.7-25.7-68.1c-2.4-8.2-4-16.5-4.8-25c-0.4-4.2-0.1-8.4,1.1-12.4
		c2.8-8.9,8.6-14.4,17.9-16.1c7.1-1.3,14.5-0.9,21.4,1.4c4.4,1.4,6.5,4.5,7.1,8.9c0.5,4.5,0,9-1.4,13.2c-1.9,6.2-4.1,12.2-6,18.3
		c-3.5,11.1-6,22.4-7.5,33.9c-1.8,12.7-0.1,25.7,4.8,37.6c1.1,2.4,2.5,4.6,4.2,6.6c1.1,1.4,2.4,1.2,3-0.5c1.1-3.3,2-6.6,2.6-10
		c1.6-8.6,3-17.2,4.6-25.8c0.3-1.5,0.9-2.9,1.3-4.3c1.6-5.6,8.1-6.6,11.8-4.7c3,1.4,5.3,4,6.2,7.1c1.7,5.6,3.3,11.4,5.1,17
		c1.2,3.8,2.7,7.6,4.2,11.3c0.7,1.7,1.7,3.2,2.8,4.7c0.5,0.7,1.7,1.6,2.3,1.4c0.9-0.4,1.6-1.2,1.8-2.2c0.6-2.1,1-4.3,1.1-6.5
		C253.3,130.5,253.1,128,253.1,125.6z"/>
	<path class="st0" d="M385.5,240.2c0.1,8.7,0.9,17.4,2.5,26c0.1,0.6,0.2,1.2,0.2,1.8c0.1,1.8-1.2,3.3-3,3.5
		c-4.2,0.4-8.4,0.7-12.6,0.9c-3.6,0.2-5.3-1.4-5.6-5c-0.6-8-1-15.9-1.6-23.9c-0.7-11.1-1.5-22.2-2.1-33.3c-0.3-2.5-0.3-5-0.1-7.4
		c0.4-3.1,2.5-5.1,5.5-6.2c0.5-0.2,1-0.3,1.5-0.4c3.6-0.9,4.6-0.3,5.8,3.2c0.5,1.8,2.5,2.8,4.3,2.3c0.2-0.1,0.4-0.2,0.6-0.3
		c0.6-0.3,1.1-0.7,1.5-1.2c4.6-5.5,10.3-9.9,16.8-13c7.7-3.9,15.9-6.9,24.4-8.8c13.6-2.9,24.6,1.5,33.2,12.2
		c6.1,7.6,9.6,16.5,12.3,25.8c2.4,9.1,4,18.4,4.8,27.9c1.2,12.7,2.3,25.3,3.7,38c1.1,9.9,3.6,19.6,7.5,28.8c1.1,2.5,0,4.3-2.9,4.4
		c-2.9,0.1-5.7-0.1-8.6-0.4c-5.9-0.7-11.8-1.7-17.7-2.6c-4.7-0.8-8.1-3.5-10.6-7.4c-2.8-4.4-4.3-9.2-5.5-14.2
		c-2.4-10.4-3-20.9-3.1-31.5c0-9.7-0.6-19.3-1.7-29c-0.9-7.1-2.3-14.2-5.4-20.8c-0.6-1.2-1.2-2.3-1.9-3.5
		c-4.6-7.3-11.2-9.9-19.6-7.9c-9.5,2.3-15.4,8.5-18.8,17.4c-2.9,7.5-3.7,15.4-3.8,23.4C385.5,239.3,385.5,239.8,385.5,240.2z
		 M436.5,182.4c-0.5,0.5-1.2,1-1.4,1.6c-0.3,0.9,0.4,1.4,1.2,1.9c2.3,1.1,4.5,2.3,6.5,3.8c5.3,4.1,9,9.5,12.1,15.3
		c3.6,6.9,6.3,14.1,8.2,21.6c0.3,1.1,0.8,2,2.1,1.7c1.1-0.2,1.5-1.2,1.1-2.6c-0.5-1.8-1-3.6-1.5-5.4c-3-9.4-6.8-18.4-12.9-26.2
		c-3.3-4.4-7.5-8.1-12.4-10.6C438.6,183.2,437.7,182.9,436.5,182.4L436.5,182.4z M428.1,181.7c-4.2,0.3-8.3,1.3-12.2,2.9
		c-1,0.5-1.5,1.2-1.1,2.2c0.3,0.8,1.2,1.3,2,1c0.1,0,0.2-0.1,0.3-0.1c0.8-0.4,1.6-0.7,2.5-0.9c3.2-0.6,6.4-1.2,9.7-1.7
		c1.1-0.2,1.8-0.5,1.8-1.7s-0.7-1.6-1.7-1.7C429.1,181.6,428.7,181.7,428.1,181.7L428.1,181.7z"/>
	<path class="st0" d="M146.4,413.5c-0.1,0.8-0.3,1.5-0.4,2.3c-0.9,8.2-1.9,16.3-4.6,24.1c-0.9,2.9-2.3,5.7-3.9,8.2
		c-3,4.4-7.5,4.6-11.2,0.7c-2.5-2.7-3.9-6.1-5.1-9.5c-2.1-6.6-3.5-13.4-4.2-20.2c-3-24.6-2.8-49.2-2.2-73.9c0.1-1.4,0.4-2.7,1-3.9
		c0.8-2,2.8-3.3,5-3.2c4.3,0.3,8.6,0.8,12.9,1.3c2.2,0.2,4.4,0.7,6.5,1c3.7,0.5,6,3.6,4.9,7.2c-0.7,2-1.6,4-2.9,5.7
		c-2.7,3.9-5.7,7.6-8.4,11.5c-4,5.8-7.2,12-8.4,19c-1.2,6.5-0.8,13.3,1.3,19.6c0.6,1.6,1.3,3.1,2.3,4.5c0.8,1,1.7,1.8,2.9,2.4
		c2.1,1.1,3.6,0.6,4.5-1.5c1.2-3.2,2.1-6.5,3.1-9.8c0.9-3,1.7-6.2,2.8-9.1c2-5.2,5.7-4.9,9.4-1.5c2.3,2.1,3.1,5.1,3.5,8.1
		c0.5,4.5,0.7,9.1,1.2,13.6c0.4,4,0.9,7.9,1.4,11.9c0.2,0.9,0.4,1.7,0.8,2.5c0.6,1.3,1.3,2.6,3,2.5s2.3-1.4,2.6-2.7
		c0.5-1.8,0.8-3.6,0.9-5.4c-0.1-7.3-0.3-14.6-0.7-22c-0.6-11.8-1.7-23.6-0.9-35.5c0.2-3.4,0.6-6.7,1.2-10c1.4-6.6,6-10.4,12.1-12.2
		c4.9-1.4,9.9-2.3,14.8-3.4c2.6-0.6,4.1,1.3,3.3,4c-2,7-4.1,14-6,21.1c-4.3,16.1-8.3,32.2-11.3,48.6c-1.3,6.9-1.9,14-3,20.9
		c-1,5.9-2.2,11.7-3.4,17.5c-0.3,1.4-0.8,2.7-1.5,3.9c-1.8,3.5-4.1,4.5-7.9,3.4c-2.7-0.8-5-2.6-6.4-5c-2.7-4.3-4.5-9.2-5.2-14.3
		c-1.1-6.8-1.9-13.6-2.9-20.3c-0.1-0.7-0.3-1.4-0.4-2.1L146.4,413.5z"/>
	<path class="st0" d="M218.2,390.2c-3.4,0.1-6.7,0.3-10.1,0.8c-8.3,1.5-13,7.2-13,15.7c-0.1,6.6,2,13,6,18.2
		c3.6,4.9,9.6,7.4,15.6,6.6c3.9-0.5,6.6-3,8.9-6c3.4-4.4,5.5-9.4,7.6-14.4c1.7-3.9,3.4-7.7,5.2-11.5c1.1-2.4,3-4.3,5.3-5.5
		c4.4-2.3,7.9-0.3,7.7,4.6c-0.2,3.8-0.6,7.5-1.2,11.2c-1,6.2-2.2,12.5-3.3,18.7l-0.1,0.3c-1,5.5-4.7,10.1-9.9,12.3
		c-8.2,3.9-16.6,6.3-25.7,5.7c-3.6-0.2-7.3-0.9-10.7-2c-6.8-2.2-10.5-7.5-12.5-14s-2.1-13.6-1.6-20.5c1.7-20.5,7.9-39.9,15-59
		c2.1-5.8,4.9-11.4,7.6-16.9c1.7-3.4,4.1-6.5,7-8.9c1-0.9,2.1-1.7,3.4-2.3c6.6-3,13.1-6.2,19.9-8.9c5.7-2.2,11.5-1.2,16.9,1.5
		c3.7,1.8,4.7,5.5,4.8,9.3c0,4.9-0.8,9.7-2.4,14.4c-3.1,10.2-6.4,20.4-9.5,30.6c-0.9,2.8-1.7,5.7-2.3,8.5c-0.8,3.6-3.3,6.7-6.6,8.3
		c-3.6,1.8-7.6,2.8-11.6,3c-3.4,0.3-6.8,0.4-10.3,0.6L218.2,390.2z M247.9,340.2c0.1-6.9-3-11.5-8.2-13.7c-4.7-2-8.6-1.3-12.6,2.9
		c-2.2,2.3-4.2,4.9-5.7,7.8c-4.7,9-8.3,18.5-10.8,28.3c-0.5,1.8-0.9,3.6-1.1,5.5c-0.2,2.5,1.5,3.6,3.8,2.5c2.9-1.4,5.7-2.9,8.5-4.4
		c7-3.9,13.5-8.3,18.9-14.2C244.8,350.2,247.8,344.9,247.9,340.2z"/>
	<path class="st0" d="M423.6,386.7c-0.3-14.2-0.6-28.4-0.9-42.5c0-2,0.1-3.9,0.5-5.9c0.5-2.5,2.3-3.6,4.8-3.1c3.2,0.6,6.2,1.7,9,3.5
		c2.2,1.4,3.5,3.3,3.3,6.1c0,0.6,0.1,1.3,0.4,1.8c0.6,1.6,1.5,3,3.3,3.1s2.7-1.3,3.5-2.6c1.5-2.7,2.8-5.6,4.7-8
		c5.7-7,16.2-9.3,24.5-5.8c4.7,2,7.5,5.5,9,10.2c1.6,5.3,2.4,10.8,2.4,16.4c0.1,9.9-0.2,19.7-0.4,29.6c-0.2,8.5-0.8,16.9,0.2,25.3
		c0.3,2.4,0.9,4.8,1.7,7.1c0.7,2.2,2.9,3.6,5.2,3.2c2.7,0,5.2-1,7.3-2.6c3.2-2.7,9.7-1.8,10.6,3.8c0.5,3.2,1.3,6.4,2.3,9.6
		c1.4,4.5-1.7,7.5-5.3,8c-5.2,0.7-10.3,1.4-15.5,2.1c-3.1,0.4-6.2,0-9.1-1.1c-5.8-2.2-9-6.8-10.8-12.5c-1.4-4.4-2-9.1-2-13.7
		c0.1-8.4,0.5-16.7,0.9-25.1c0.5-9.4,1-18.8-1-28.1c-0.5-2.6-1.4-5.1-2.5-7.5c-3.9-8.3-13.5-9.4-19.5-2.3c-2.4,3.1-4.1,6.7-4.8,10.5
		c-1.5,6.9-2.1,14-1.7,21c0.3,7.9,0.5,15.8,1.4,23.6c1.1,9.8-3.2,17.3-9.3,24.1c-1.4,1.6-3.5,2.5-5.7,2.2c-3.1,0-5.6-2.6-5.5-5.7
		c0,0,0,0,0,0C424.2,416.5,423.9,401.6,423.6,386.7L423.6,386.7z M484.6,352.4l-0.2-0.3c-0.1-0.8-0.2-1.6-0.3-2.4
		c-1-8.2-7.6-14.6-15.8-15.2c-0.9-0.1-1.8-0.1-1.8,1s0.8,1.1,1.7,1.2c6.4,0.4,11.8,4.9,13.3,11.1c0.3,1.5,0.6,2.9,0.8,4.4
		c0.1,0.8,0.3,1.7,1.3,1.5C483.9,353.7,484.2,352.9,484.6,352.4z M484.4,362.8L484.4,362.8c0-1.5,0.1-2.9,0-4.3
		c0-0.5-0.6-0.9-0.9-1.3c-0.4,0.4-1.1,0.8-1.1,1.2c-0.1,2.9-0.1,5.9,0,8.8c0,0.5,0.7,0.9,1.1,1.3c0.3-0.5,1-0.9,1-1.4
		C484.5,365.7,484.4,364.3,484.4,362.8L484.4,362.8z"/>
	<path class="st0" d="M355.6,345c0.2-11.2,0.4-21.3,0.6-31.5c0.1-4.1,2.3-6.4,6.3-6.9c5.8-0.7,10.4,1.6,11.8,6.5c0.5,2,0.6,4,0.4,6
		c-1.8,15.9-3,31.9-2.4,47.9c0.3,7.9,0.9,15.8,3.6,23.3c0.8,2.3,1.9,4.6,3.4,6.6c4.2,5.8,11.6,5.8,15.9,0.2
		c2.7-3.5,3.9-7.7,4.7-11.9c1.7-8.7,1.6-17.6,1.2-26.4c-0.8-15.2-2.6-30.3-5.4-45.3c-0.7-4,1.7-6.9,5.8-7
		c7.3-0.3,13.5,5.4,13.8,12.7c0,0.2,0,0.3,0,0.5c-0.2,14.4-0.3,28.8-1,43.1c-0.5,12.9-2.6,25.7-6.4,38.1c-1.5,5.2-3.8,10.1-6.9,14.6
		c-2.9,4-6.5,7.2-11.6,8c-8.4,1.3-15.5-1.3-21-7.9c-4.3-5.1-6.6-11.3-8.6-17.6c-2.6-8.2-3.9-16.7-3.9-25.2
		C355.9,363.2,355.8,353.6,355.6,345z"/>
	<path class="st0" d="M344.1,56.8c-0.2,4.6-0.5,9.2-0.8,13.8c-0.1,2.3,0.9,3.1,3.1,2.4s4.6-1.3,6.9-2s3.5,0.2,3.5,2.7
		c0,2.2,0,4.5,0,6.8c0,2.6-1.6,3.9-4.2,3.5c-0.9-0.1-1.8-0.3-2.6-0.4c-2.7-0.2-4.8,0.9-5.6,3.5c-0.6,1.8-0.9,3.7-1,5.6
		c-0.7,19-1.3,38-1.9,57c-0.3,10.1-0.6,20.2-0.8,30.3c0,2.3-0.7,4-2.6,5.2c-4.1,2.5-8.1,5.1-12.3,7.3c-1.7,0.9-3.6,1.4-5.5,1.5
		c-2.2,0.3-4.3-1.2-4.7-3.5c0-0.2,0-0.4,0-0.7c-0.2-2.2-0.1-4.5,0.1-6.8c1.6-14.6,3.1-29.3,4.9-43.9c1.9-15.1,4.2-30.2,6.3-45.3
		c0.2-1.1,0.2-2.1,0.2-3.2c0.1-1-0.7-2-1.7-2.1c-0.3,0-0.6,0-0.9,0.1c-1.5,0.4-2.9,1-4.3,1.7c-4.5,2-9,4.2-13.6,6.2
		c-2,0.8-4.1,1.4-6.2,1.7c-2.9,0.5-4.2-0.7-4-3.6c0.1-3.9,0.9-7.8,2.3-11.5c1-2.4,2.5-4.4,5.3-4.8c0.7-0.1,1.3-0.1,2-0.1
		c6.7-0.1,13.4-0.7,20-1.8c1.1-0.1,2-1.1,2-2.2c0.8-8.1,1.7-16.1,2.5-24.2c0.2-2.2,0.4-4.4,0.9-6.6c0.7-3.3,2.4-5.9,5.8-6.8
		c4.4-1.2,7.8,1.6,7.7,6.2c-0.1,3.2-0.3,6.4-0.5,9.6C344.3,53.9,344.2,55.3,344.1,56.8z"/>
	<path class="st0" d="M272.5,269.1c-0.3-10.7-0.9-22.4-3-33.8c-0.8-3.9-1.8-7.7-3.1-11.5c-0.5-1.4-1.3-2.7-2.4-3.8
		c-0.8-1-2.2-1.4-3.5-0.9c-2.8,0.8-4.7,3.2-4.9,6.1c-0.2,1.9-0.1,3.8-0.1,5.6c0,0.9,0,1.9-0.1,2.8c-0.1,2.2-2.1,3.9-4.3,3.8
		c-0.2,0-0.4,0-0.7-0.1c-1.2-0.1-2.1-0.9-2.5-2c-0.4-1.4-0.7-2.8-0.8-4.3c-0.2-2.2-0.1-4.5-0.3-6.7c-0.2-1.2-0.6-2.4-1.3-3.5
		c-0.8-1.7-2.9-2.4-4.6-1.5c-0.9,0.5-1.6,1.3-1.8,2.3c-0.8,2.9-1.4,5.8-1.9,8.8c-1.1,9.2-1,18.6,0.2,27.8c1,9,2.2,18.1,3.4,27.1
		c0.5,3.6-1.3,5.6-4.9,5.6c-2.6,0-5.3,0-7.9,0c-2.9,0-4.8-2-4.4-4.9c2.5-20,2.3-40,1.7-60.1c-0.4-11.1-1.2-22.2-1.9-33.3
		c-0.1-1.4-0.4-2.8-0.5-4.2c-0.3-3.7,1.4-5.4,5.1-5.4h4.4c2.8,0,4.7,1.1,5.2,3.9c0.4,2.8,0.6,5.7,0.5,8.5c-0.1,1.3-0.2,2.6-0.5,3.9
		c-0.4,2,0.8,4.1,2.8,4.7c2.3,0.8,4.2,2.3,5.5,4.4c2,2.8,4,3.2,6.9,1.2c1.4-1,3-1.9,4.3-3c4.6-3.8,14.4-4.1,20.1,1.2
		c4,3.8,6.5,8.4,8.5,13.5c2.7,7.6,4.6,15.5,5.6,23.5c1,7,2,14,2.7,21.1c0.2,3.7,0.2,7.5-0.1,11.2c-0.1,1.6-1.2,3-2.8,3.6
		c-4.5,2.1-9,4-13.9,5c-0.2,0-0.4,0.1-0.5,0.1c-3.7,0.5-4.4-0.2-4.3-3.9C272.6,277.8,272.5,273.9,272.5,269.1z"/>
	<path class="st0" d="M369.6,153c0,2,0,4,0,6.1c0.1,2.7-1.2,5.2-3.4,6.8c-1,0.7-2,1.5-3,2.2c-1.5,1.2-3.6,1.4-5.3,0.4
		c-1.8-0.8-2.8-2.7-2.6-4.6c0.4-6.8,0.8-13.5,1.4-20.2c0.7-8.8,1.6-17.6,2.4-26.4c0.7-7.2,1.4-14.4,2-21.6c0.5-6.6,0.9-13.3,1.3-20
		c0.4-6.1,0.6-12.2,1.2-18.3c0.3-4,1.8-7.9,4.4-11c2.8-3.3,6.2-5.1,10.7-4.3c3.4,0.5,5.8,3.6,5.7,7c-0.1,4.2-1.4,8.2-2.7,12.2
		c-2.9,8.8-6,17.5-8.9,26.2c-0.8,2.8-1.4,5.7-1.9,8.6c-0.1,0.5,0.3,1.1,0.5,1.7c0.4-0.4,1-0.7,1.3-1.2c4.6-9.8,17.1-15.9,27.2-13.2
		c3.8,0.9,7,3.3,8.9,6.6c2.6,4.6,4.5,9.6,5.5,14.8c1.7,7.8,3.2,15.6,4.8,23.4c0.2,1,0.5,2,0.7,3c0.5,2.2-0.3,4.5-2.1,5.8
		c-3.3,2.7-7.1,4.8-11.1,6.4c-4.9,1.7-7.5,0.1-8.3-5c-0.7-4.3,0-8.5,0.4-12.8c0.4-4.8,0.8-9.5,1-14.3c0-1.2-0.3-2.3-0.7-3.4
		c-0.8-2.4-3-4.1-5.5-4.1c-5.7-0.7-11.2,1.9-14.4,6.6c-3.4,4.6-5.1,10-6.4,15.5C370.8,134.8,369.7,143.8,369.6,153z M365.2,79.6
		c0.4,0.4,0.8,1.1,1.3,1.1c0.9,0.1,1.1-0.6,1.1-1.4c0.3-4.1,0.5-8.2,0.8-12.4c0.4-6.5,1.1-12.9,5.9-18c0.2-0.4,0.2-0.9,0-1.3
		c-0.4-0.3-0.9-0.4-1.3-0.2c-0.6,0.4-1.2,0.9-1.6,1.5c-2.2,2.7-3.5,5.9-4,9.3C366.5,65.3,365.9,72.3,365.2,79.6L365.2,79.6z
		 M367.1,86.9L367.1,86.9c0.1-0.5,0.1-1.1,0.1-1.7c-0.2-0.5-0.6-1-0.9-1.4c-0.4,0.4-1.1,0.8-1.2,1.2c-0.4,4.6-0.8,9.2-1,13.9
		c0,0.5,0.7,1,1,1.5c0.4-0.5,1.1-0.9,1.1-1.4C366.6,94.9,366.8,90.9,367.1,86.9L367.1,86.9z"/>
	<path class="st0" d="M360.5,259.2c0,3.1,0,6.3,0,9.4c0,2.1-0.7,3.1-2.8,3.6c-1.3,0.3-2.7,0.5-4,0.4c-7.1-0.4-14.2-0.8-21.3-1.5
		c-4.8-0.4-9.5-1.2-14.1-2.4c-10.7-3.1-17.8-10-20.3-21c-1.1-5-0.6-10.2,1.4-14.9c3.4-9.1,9.2-17.1,16.8-23.2
		c5.7-4.7,13.3-6.6,20.5-5.2c7,1.1,10.8,6.2,10.6,13.4c-0.4,11.8-7.2,19.9-18.8,22.2c-2.1,0.4-4.2,0.7-6.3,0.9
		c-3.5,0.1-6.2,3-6.1,6.4c0,0.1,0,0.2,0,0.3c0,3.3,2.7,6,6,6c0.2,0,0.3,0,0.5,0c9.6-0.3,18.5-2.9,26.3-8.8c2.2-1.7,4.6-2.3,7.2-1.1
		c2.3,0.9,3.8,3.2,3.8,5.7c0.1,3.3,0,6.6,0,9.9L360.5,259.2z M318.8,236.5l0.1,0.3c2.8-0.6,5.6-1.3,8.4-2.2
		c5.2-1.8,9.2-5.9,10.8-11.1c1.2-3.8-0.2-7.1-3.7-8.5c-3.7-1.5-7.4-1-10.2,1.8c-2.5,2.5-4.8,5.3-6.8,8.2c-1.8,2.4-2.8,5.4-2.8,8.4
		c-0.1,1.6,1.1,3,2.7,3.1c0.1,0,0.2,0,0.3,0C317.9,236.5,318.4,236.5,318.8,236.5z"/>
	<path class="st0" d="M219.3,248.2c0.2,9.2-0.2,18.4-2.8,27.3c-0.9,2.7-1.9,5.4-3.1,8c-0.4,0.9-0.9,1.7-1.5,2.5
		c-3.1,5.1-7.7,6.6-13.4,5.7c-4.7-0.7-8.9-3.6-11.2-7.7c-2.4-4.1-4.1-8.7-4.8-13.5c-1.7-9.7-1.6-19.4-1-29.2
		c0.4-7.6,1.7-15.2,3.8-22.6c1.2-4.5,3.3-8.6,6.2-12.3c1.7-2.2,3.9-3.9,6.4-4.9c4.2-1.6,8-1,11.2,2.3s5.2,7.7,6.6,12.1
		c2.2,7.4,3.4,15,3.6,22.7C219.4,242,219.3,245.1,219.3,248.2z M213.4,249.2c-0.2-1.6-0.3-4.5-0.8-7.3c-0.7-4-2-7.7-5-10.6
		c-4.2-4.1-10.1-3.8-13.9,0.6c-1.1,1.2-2,2.6-2.5,4.2c-1.1,3.1-1.8,6.4-2.3,9.7c-0.7,6-0.3,11.9,2.3,17.5c1.2,2.9,3.4,5.4,6.1,7
		c3.5,2.2,8,1.5,10.6-1.6c1.1-1.2,2-2.5,2.8-4C212.8,260.2,213.3,255.4,213.4,249.2z M212.9,216.7c-0.5-1.6-0.8-3-1.3-4.2
		c-1.3-3.7-4.3-6.6-8.1-7.8c-1.1-0.4-2-0.1-2.3,1.1s0.3,1.8,1.3,2.1c2.9,0.9,5.1,3.1,6.1,6c0.3,1,0.6,2.1,1,3.1
		c0.4,0.6,1.1,1,1.8,1.1C211.9,217.9,212.4,217.1,212.9,216.7z"/>
	<path class="st0" d="M308.1,133.7c-0.8,11.5-1.5,22.1-2.4,32.6c-0.3,3.2-1.1,6.3-2.2,9.3c-2.2,6-8.5,7.4-13.3,3
		c-2.4-2.3-3.9-5.4-4-8.7c-0.3-3.7-0.3-7.4,0-11.1c0.7-10.3,2-20.6,3.9-30.7c1-6.3,2.7-12.5,5.1-18.4c0.5-1.3,1.3-2.6,2.1-3.8
		c2.6-3.2,6.7-2.8,8.4,1c1,2.2,1.6,4.5,1.7,6.9C307.9,120.7,308,127.7,308.1,133.7z"/>
	<path class="st0" d="M394.3,446.5c-4.3-0.1-8.4-1.2-12.2-3.2c-4.2-2.1-8.2-4.5-12.2-6.9c-1.8-1.1-3-3-3.1-5.1
		c-0.5-3.5,2.3-5.7,5.6-4.4c4.9,2,10,3.2,15.3,3.6c4.2,0.3,8.5-0.2,12.5-1.4c5-1.4,9.5,1.1,10.6,5.8c1.1,4.5-1.7,9-6.2,10.1
		c-0.2,0.1-0.5,0.1-0.7,0.1C400.6,445.8,397.4,446.1,394.3,446.5z"/>
</g>
</svg>
