<?xml version="1.0" encoding="utf-8"?>
<!-- Generator: Adobe Illustrator 26.3.1, SVG Export Plug-In . SVG Version: 6.00 Build 0)  -->
<svg version="1.1" id="Capa_1" xmlns="http://www.w3.org/2000/svg" xmlns:xlink="http://www.w3.org/1999/xlink" x="0px" y="0px"
	 viewBox="0 0 717.9 700.7" style="enable-background:new 0 0 717.9 700.7;" xml:space="preserve">
<style type="text/css">
	.st0{fill:#FFFFFF;}
</style>
<g>
	<g>
		<path class="st0" d="M152,482.2l-6,1.9l-1.5-2.1l19.3-6l1.7,2.4L153.8,495l-1.5-2.1l3.7-5.2L152,482.2z M157.2,486.2l3.4-4.7
			c0.8-1.1,1.5-2,2.2-2.9l0,0c-1.1,0.4-2.2,0.9-3.4,1.3l-5.6,1.7L157.2,486.2z"/>
	</g>
	<g>
		<path class="st0" d="M175.2,491.6c1.2,1,2.5,2.2,3.8,3.6c2.3,2.6,3.4,5,3.4,7.3c0,2.3-1,4.5-3.3,6.6c-2.3,2.1-4.9,3.1-7.4,2.9
			c-2.5-0.1-5.2-1.7-7.7-4.4c-1.2-1.3-2.1-2.5-2.8-3.5L175.2,491.6z M164.2,504.7c0.3,0.5,0.9,1.2,1.6,1.9c3.5,3.9,7.6,4.1,11.4,0.6
			c3.4-3,3.8-6.8,0.4-10.7c-0.8-0.9-1.6-1.6-2.1-2L164.2,504.7z"/>
	</g>
	<g>
		<path class="st0" d="M194.1,511.2L180.9,525l-1.8-1.7l13.2-13.8L194.1,511.2z"/>
	</g>
	<g>
		<path class="st0" d="M200.8,517.7c1.3,0.8,2.8,1.8,4.3,3c2.7,2.2,4.2,4.5,4.4,6.7c0.3,2.3-0.3,4.6-2.3,7c-2,2.4-4.3,3.8-6.8,4
			c-2.5,0.3-5.4-0.9-8.2-3.2c-1.3-1.1-2.4-2.1-3.3-3L200.8,517.7z M192,532.4c0.4,0.5,1.1,1.1,1.8,1.7c4.1,3.3,8.1,2.9,11.4-1.1
			c2.9-3.5,2.7-7.3-1.3-10.6c-1-0.8-1.8-1.3-2.4-1.6L192,532.4z"/>
	</g>
	<g>
		<path class="st0" d="M214.3,544.5l-5,3.9l-2.1-1.4l16-12.3l2.5,1.6l-5.2,19.5l-2.2-1.5l1.7-6.1L214.3,544.5z M220.6,546.4l1.5-5.6
			c0.3-1.3,0.7-2.4,1.1-3.4l0,0c-0.9,0.8-1.8,1.6-2.7,2.3l-4.6,3.6L220.6,546.4z"/>
	</g>
	<g>
		<path class="st0" d="M231.1,558.7c0.6,1.1,1.8,2.4,3.3,3.2c2.2,1.2,4.1,0.7,5-1c0.8-1.6,0.4-2.9-1.3-5c-2.2-2.4-3.1-4.8-1.8-7.2
			c1.4-2.6,4.6-3.4,7.9-1.6c1.7,0.9,2.7,2,3.3,2.8l-1.6,1.4c-0.4-0.6-1.2-1.7-2.7-2.5c-2.3-1.2-3.9-0.3-4.5,0.8
			c-0.8,1.6-0.3,2.9,1.6,5c2.2,2.6,2.9,4.8,1.6,7.2c-1.4,2.6-4.5,3.8-8.5,1.7c-1.6-0.9-3.1-2.3-3.7-3.4L231.1,558.7z"/>
	</g>
	<g>
		<path class="st0" d="M268.1,559.2c1.3,0.2,3,0.7,4.5,1.3c2.5,0.9,3.9,2,4.6,3.4c0.6,1.1,0.6,2.5,0.1,3.9c-0.9,2.4-3,3.4-5.1,3.3
			l0,0.1c1.2,1,1.5,2.6,1.3,4.6c-0.4,2.7-0.6,4.6-0.5,5.4l-2.4-0.9c-0.1-0.6,0.1-2.3,0.4-4.7c0.4-2.7-0.2-3.9-2.3-4.8l-2.2-0.8
			l-2.9,7.8l-2.3-0.9L268.1,559.2z M267.3,568.2l2.3,0.9c2.5,0.9,4.5,0.2,5.3-1.9c0.9-2.3-0.4-3.9-2.8-4.9c-1.1-0.4-1.9-0.6-2.3-0.6
			L267.3,568.2z"/>
	</g>
	<g>
		<path class="st0" d="M291,567l-3,10.9c-1.1,4.1,0.2,6.4,2.7,7c2.7,0.7,5-0.6,6.1-4.7l3-10.9l2.4,0.7l-2.9,10.7
			c-1.6,5.7-5.2,7.2-9.1,6.1c-3.8-1-6-4-4.4-9.7l3-10.9L291,567z"/>
	</g>
	<g>
		<path class="st0" d="M308.5,591l3.2-18.8l2.6,0.5l4.4,10.5c1,2.4,1.8,4.6,2.3,6.7l0.1,0c0.2-2.6,0.5-4.9,1-7.8l1.3-7.9l2.3,0.4
			l-3.2,18.8l-2.4-0.4l-4.3-10.6c-1-2.3-1.8-4.7-2.4-6.9l-0.1,0c-0.3,2.4-0.6,4.7-1.1,7.8l-1.4,8.1L308.5,591z"/>
	</g>
	<g>
		<path class="st0" d="M334.2,594.8l1.3-19.1l2.7,0.2l5.4,10.1c1.3,2.3,2.2,4.4,3,6.4l0.1,0c0-2.6,0-4.9,0.3-7.8l0.5-8l2.3,0.2
			l-1.3,19.1l-2.5-0.2l-5.4-10.1c-1.2-2.2-2.3-4.5-3.1-6.6l-0.1,0c0,2.4-0.1,4.7-0.3,7.9l-0.5,8.1L334.2,594.8z"/>
	</g>
	<g>
		<path class="st0" d="M369.7,586.7l-7.4,0.2l0.2,6.9l8.2-0.2l0.1,2.1l-10.7,0.3l-0.5-19.1l10.3-0.3l0.1,2.1l-7.8,0.2l0.2,6l7.4-0.2
			L369.7,586.7z"/>
	</g>
	<g>
		<path class="st0" d="M380.7,576.1c1.2-0.4,3-0.8,4.6-0.9c2.6-0.3,4.3,0,5.6,0.9c1,0.7,1.7,2,1.9,3.4c0.3,2.5-1.1,4.4-3,5.3l0,0.1
			c1.5,0.3,2.5,1.6,3.2,3.5c0.9,2.6,1.6,4.4,2.1,5l-2.5,0.3c-0.4-0.5-1-2.1-1.8-4.4c-0.9-2.6-2-3.4-4.2-3.2l-2.3,0.3l1,8.2l-2.4,0.3
			L380.7,576.1z M384.2,584.5l2.5-0.3c2.6-0.3,4.1-1.9,3.8-4.1c-0.3-2.4-2.2-3.3-4.8-3c-1.2,0.1-2,0.3-2.4,0.5L384.2,584.5z"/>
	</g>
	<g>
		<path class="st0" d="M405.3,588.7c1.2,0.4,2.9,0.7,4.6,0.3c2.5-0.5,3.6-2.1,3.2-4c-0.4-1.7-1.6-2.5-4.3-3c-3.3-0.4-5.5-1.6-6-4.3
			c-0.6-2.9,1.3-5.6,5-6.3c1.9-0.4,3.4-0.3,4.3,0l-0.3,2.1c-0.7-0.2-2-0.5-3.7-0.1c-2.5,0.5-3.2,2.3-2.9,3.5
			c0.4,1.7,1.7,2.4,4.5,2.8c3.4,0.6,5.3,1.8,5.9,4.5c0.6,2.9-1,5.8-5.4,6.8c-1.8,0.4-3.9,0.3-5-0.2L405.3,588.7z"/>
	</g>
	<g>
		<path class="st0" d="M454.1,557.4c0.9-0.7,2.3-1.5,3.9-2.3c2.2-1,3.8-1.3,5.3-1c1.2,0.3,2.2,1,2.9,2.4c0.8,1.7,0.4,3.7-1.1,5.2
			l0,0c1.8-0.4,4.4,0.1,5.6,2.7c0.7,1.5,0.6,2.9,0.2,4.2c-0.7,1.7-2.4,3.1-5.2,4.4c-1.5,0.7-2.8,1.2-3.6,1.4L454.1,557.4z
			 M459.6,563.5l2-0.9c2.3-1.1,3.2-3,2.4-4.6c-0.9-2-2.9-2.1-5.1-1.1c-1,0.5-1.6,0.8-1.9,1.1L459.6,563.5z M463.5,571.8
			c0.5-0.1,1.1-0.4,1.9-0.8c2.3-1.1,4-2.9,2.9-5.4c-1.1-2.4-3.6-2.4-6-1.3l-1.8,0.9L463.5,571.8z"/>
	</g>
	<g>
		<path class="st0" d="M492.5,547.3c3.4,5.7,1.7,10.7-2.4,13.2c-4.3,2.6-9.4,1-12.3-3.9c-3.1-5.2-1.9-10.5,2.4-13.1
			C484.6,540.7,489.6,542.4,492.5,547.3z M480,555.2c2.1,3.5,5.9,5.5,9.2,3.5c3.3-2,3.4-6.2,1.2-9.9c-1.9-3.3-5.7-5.7-9.2-3.6
			C477.6,547.3,477.8,551.6,480,555.2z"/>
	</g>
	<g>
		<path class="st0" d="M519.1,539.3c-0.6,1-2,2.8-4,4.4c-2.3,1.7-4.6,2.6-7.2,2.3c-2.3-0.3-4.6-1.7-6.4-4.1
			c-3.4-4.6-2.8-10.2,2.3-14.1c1.8-1.3,3.4-2,4.3-2.2l0.7,2c-1.1,0.3-2.3,0.7-3.9,1.9c-3.7,2.8-4.4,6.9-1.5,10.7
			c2.9,3.9,7,4.4,10.5,1.7c1.3-1,2-1.8,2.3-2.4l-3.4-4.5l-3.1,2.3l-1.2-1.6l5-3.8L519.1,539.3z"/>
	</g>
	<g>
		<path class="st0" d="M535.5,512.6c4.5,4.8,4,10,0.5,13.4c-3.6,3.5-8.9,3.1-12.9-1.1c-4.2-4.4-4.2-9.9-0.5-13.4
			C526.4,507.9,531.6,508.5,535.5,512.6z M525,523c2.8,3,6.9,4.1,9.7,1.4c2.8-2.7,1.9-6.8-1-9.9c-2.6-2.8-6.8-4.3-9.7-1.5
			C521,515.9,522.2,520,525,523z"/>
	</g>
	<g>
		<path class="st0" d="M539.6,497.5l-3.8,4.4l-1.6-1.4l9.2-10.7l1.6,1.4l-3.8,4.4l12.9,11.1l-1.6,1.9L539.6,497.5z"/>
	</g>
	<g>
		<path class="st0" d="M550.4,473.5l0.6,4.9l-1.2,1.6l-1.1-4.1L550.4,473.5z M560.1,489.9l3.7,5.1l-1.5,2.1l-11.6-16.5l1.7-2.4
			l19.3,6l-1.5,2.1l-6.1-1.9L560.1,489.9z M562.2,483.7l-5.5-1.7c-1.3-0.4-2.3-0.8-3.4-1.3l0,0c0.8,0.9,1.5,1.8,2.2,2.8l3.4,4.8
			L562.2,483.7z"/>
	</g>
	<path class="st0" d="M469.3,386.9c18.6-11.5,31.1-32.1,31.1-55.6v-11.1c0-36-29.3-65.2-65.2-65.2h-60v64.1l33.8,44h-33.8v82.6h33.5
		v-49.1h26l37.7,49.1h42.2L469.3,386.9z M466.9,331.3c0,12.7-7.5,23.6-18.2,28.7l-40.2-52.4v-19.3h26.6c17.5,0,31.8,14.3,31.8,31.8
		V331.3z"/>
	<path class="st0" d="M313.5,255l-62,108.1h-38.9l-23.2,33.5h43.1l-27.8,49.1h38.5l27.9-49.1h21.1l34.1,49.1h40.8V255H313.5z
		 M333.6,397.9l-24.1-34.9H290l43-74.6h0.7L333.6,397.9L333.6,397.9z"/>
	<path class="st0" d="M358.9,53.4c-163.8,0-297,133.2-297,297c0,163.7,133.2,296.9,297,296.9s297-133.2,297-296.9
		C655.9,186.6,522.7,53.4,358.9,53.4 M358.9,628.6c-153.4,0-278.2-124.8-278.2-278.2c0-153.4,124.8-278.3,278.2-278.3
		c153.4,0,278.3,124.8,278.3,278.3C637.2,503.8,512.4,628.6,358.9,628.6"/>
	<polygon class="st0" points="389.8,196.5 345.2,119.6 374.1,102.8 428.4,196.4 	"/>
	<polygon class="st0" points="376.9,196.5 341.1,134.8 312.1,151.5 338.3,196.6 	"/>
	<polygon class="st0" points="325.4,196.6 308.1,166.8 279.1,183.5 286.8,196.7 	"/>
</g>
</svg>
