<?xml version="1.0" encoding="utf-8"?>
<!-- Generator: Adobe Illustrator 26.3.1, SVG Export Plug-In . SVG Version: 6.00 Build 0)  -->
<svg version="1.1" id="Capa_1" xmlns="http://www.w3.org/2000/svg" xmlns:xlink="http://www.w3.org/1999/xlink" x="0px" y="0px"
	 viewBox="0 0 717.86 700.68" style="enable-background:new 0 0 717.86 700.68;" xml:space="preserve">
<style type="text/css">
	.st0{fill:#FFFFFF;}
</style>
<g>
	<g>
		<path class="st0" d="M186.1,468.71l-5.05,1.62l-1.25-1.72l16.15-5.02l1.46,2.01l-9.77,13.81l-1.29-1.78l3.08-4.34L186.1,468.71z
			 M190.48,471.99l2.81-3.97c0.64-0.9,1.27-1.65,1.88-2.39l-0.03-0.04c-0.91,0.37-1.85,0.73-2.82,1.05l-4.67,1.46L190.48,471.99z"/>
	</g>
	<g>
		<path class="st0" d="M205.56,476.54c0.98,0.81,2.08,1.82,3.16,3.04c1.97,2.2,2.86,4.23,2.82,6.15c-0.03,1.93-0.86,3.78-2.79,5.51
			c-1.95,1.74-4.08,2.57-6.17,2.44c-2.11-0.11-4.35-1.41-6.42-3.72c-0.98-1.09-1.74-2.06-2.35-2.91L205.56,476.54z M196.37,487.52
			c0.28,0.45,0.76,1.03,1.3,1.63c2.93,3.28,6.37,3.41,9.59,0.53c2.83-2.5,3.2-5.69,0.3-8.93c-0.71-0.79-1.32-1.33-1.77-1.66
			L196.37,487.52z"/>
	</g>
	<g>
		<path class="st0" d="M221.43,492.96l-11.08,11.56l-1.49-1.42l11.08-11.56L221.43,492.96z"/>
	</g>
	<g>
		<path class="st0" d="M227,498.47c1.09,0.65,2.33,1.48,3.6,2.52c2.28,1.88,3.48,3.74,3.73,5.64c0.27,1.91-0.27,3.87-1.91,5.87
			c-1.66,2.02-3.64,3.16-5.72,3.36c-2.1,0.21-4.52-0.73-6.91-2.69c-1.13-0.93-2.04-1.77-2.77-2.52L227,498.47z M219.61,510.72
			c0.34,0.4,0.91,0.9,1.53,1.41c3.4,2.79,6.82,2.4,9.56-0.95c2.42-2.91,2.29-6.11-1.07-8.87c-0.82-0.67-1.5-1.11-2-1.37
			L219.61,510.72z"/>
	</g>
	<g>
		<path class="st0" d="M238.34,520.89l-4.18,3.26l-1.77-1.18l13.42-10.29l2.06,1.38l-4.4,16.33l-1.83-1.22l1.39-5.13L238.34,520.89z
			 M243.58,522.46l1.27-4.7c0.29-1.07,0.62-1.99,0.94-2.89l-0.04-0.03c-0.73,0.66-1.48,1.32-2.28,1.96l-3.88,2.98L243.58,522.46z"/>
	</g>
	<g>
		<path class="st0" d="M252.39,532.83c0.54,0.94,1.5,2,2.75,2.68c1.85,1,3.46,0.61,4.23-0.81c0.71-1.32,0.37-2.47-1.12-4.23
			c-1.85-2.05-2.62-4.01-1.54-6c1.19-2.19,3.88-2.84,6.61-1.37c1.44,0.78,2.29,1.68,2.73,2.37l-1.3,1.21
			c-0.32-0.5-1.03-1.42-2.3-2.11c-1.91-1.04-3.26-0.28-3.79,0.68c-0.71,1.32-0.21,2.43,1.31,4.23c1.87,2.2,2.46,4.01,1.34,6.07
			c-1.18,2.17-3.8,3.19-7.1,1.39c-1.35-0.73-2.61-1.93-3.09-2.84L252.39,532.83z"/>
	</g>
	<g>
		<path class="st0" d="M283.42,533.25c1.05,0.17,2.49,0.58,3.81,1.08c2.06,0.78,3.25,1.65,3.86,2.85c0.5,0.95,0.54,2.13,0.1,3.29
			c-0.75,1.98-2.48,2.82-4.25,2.77l-0.03,0.07c1,0.83,1.29,2.16,1.05,3.85c-0.3,2.27-0.49,3.85-0.4,4.55l-1.99-0.75
			c-0.08-0.51,0.07-1.93,0.35-3.96c0.34-2.23-0.17-3.31-1.89-4.04l-1.82-0.68l-2.44,6.5l-1.93-0.73L283.42,533.25z M282.78,540.8
			l1.97,0.74c2.06,0.78,3.79,0.13,4.44-1.58c0.73-1.93-0.35-3.3-2.38-4.09c-0.93-0.35-1.63-0.51-1.97-0.54L282.78,540.8z"/>
	</g>
	<g>
		<path class="st0" d="M302.66,539.72l-2.5,9.15c-0.95,3.46,0.18,5.35,2.24,5.91c2.28,0.62,4.16-0.49,5.09-3.91l2.5-9.15l2.01,0.55
			l-2.46,9.01c-1.3,4.75-4.32,6.02-7.65,5.1c-3.15-0.86-5.03-3.32-3.72-8.11l2.49-9.1L302.66,539.72z"/>
	</g>
	<g>
		<path class="st0" d="M317.32,559.85l2.67-15.79l2.22,0.38l3.69,8.84c0.85,2.05,1.48,3.87,1.95,5.61l0.05-0.02
			c0.17-2.14,0.45-4.07,0.86-6.53l1.12-6.61l1.91,0.32l-2.67,15.79l-2.05-0.35l-3.64-8.86c-0.8-1.94-1.54-3.92-2.05-5.77l-0.07,0.01
			c-0.22,2.01-0.5,3.92-0.94,6.54l-1.14,6.75L317.32,559.85z"/>
	</g>
	<g>
		<path class="st0" d="M338.84,563.03l1.09-15.98l2.24,0.15l4.55,8.43c1.05,1.95,1.86,3.7,2.5,5.39l0.05-0.02
			c-0.04-2.15,0.04-4.09,0.21-6.58l0.46-6.69l1.94,0.13l-1.09,15.98l-2.08-0.14l-4.5-8.45c-0.99-1.85-1.93-3.75-2.61-5.54
			l-0.07,0.02c-0.02,2.02-0.1,3.95-0.28,6.6l-0.46,6.83L338.84,563.03z"/>
	</g>
	<g>
		<path class="st0" d="M368.6,556.28l-6.2,0.16l0.15,5.77l6.91-0.18l0.05,1.73l-8.96,0.23l-0.42-16.01l8.61-0.22l0.05,1.73
			l-6.55,0.17l0.13,5.06l6.2-0.16L368.6,556.28z"/>
	</g>
	<g>
		<path class="st0" d="M377.84,547.41c1.01-0.34,2.48-0.63,3.89-0.79c2.18-0.26,3.64-0.02,4.73,0.76c0.88,0.61,1.46,1.65,1.6,2.87
			c0.25,2.1-0.91,3.65-2.51,4.41l0.01,0.07c1.27,0.28,2.13,1.33,2.7,2.94c0.78,2.16,1.34,3.65,1.74,4.22l-2.11,0.25
			c-0.31-0.42-0.83-1.75-1.5-3.68c-0.73-2.14-1.67-2.87-3.54-2.72l-1.93,0.23l0.81,6.89l-2.04,0.24L377.84,547.41z M380.74,554.42
			l2.09-0.25c2.18-0.26,3.43-1.62,3.22-3.44c-0.24-2.05-1.83-2.78-3.99-2.54c-0.99,0.12-1.68,0.29-2,0.43L380.74,554.42z"/>
	</g>
	<g>
		<path class="st0" d="M398.42,557.99c1.02,0.37,2.44,0.56,3.83,0.27c2.06-0.43,3.04-1.78,2.7-3.36c-0.31-1.46-1.32-2.13-3.59-2.5
			c-2.74-0.37-4.59-1.37-5.05-3.58c-0.51-2.44,1.12-4.68,4.15-5.32c1.6-0.34,2.83-0.21,3.61,0.04l-0.21,1.77
			c-0.57-0.17-1.71-0.42-3.12-0.12c-2.13,0.45-2.67,1.9-2.45,2.97c0.31,1.46,1.41,1.99,3.74,2.37c2.85,0.47,4.46,1.47,4.95,3.77
			c0.51,2.42-0.83,4.89-4.52,5.66c-1.5,0.32-3.24,0.22-4.19-0.16L398.42,557.99z"/>
	</g>
	<g>
		<path class="st0" d="M439.38,531.73c0.73-0.55,1.96-1.28,3.27-1.89c1.87-0.87,3.22-1.11,4.46-0.8c1.01,0.21,1.86,0.86,2.4,2
			c0.65,1.4,0.31,3.06-0.95,4.33l0.02,0.04c1.53-0.3,3.67,0.09,4.68,2.25c0.58,1.25,0.53,2.43,0.14,3.48c-0.58,1.4-2,2.59-4.36,3.69
			c-1.29,0.6-2.31,0.98-2.98,1.18L439.38,531.73z M444.02,536.8l1.69-0.79c1.97-0.92,2.65-2.5,1.99-3.89
			c-0.79-1.7-2.39-1.77-4.28-0.89c-0.86,0.4-1.32,0.7-1.59,0.9L444.02,536.8z M447.27,543.76c0.4-0.11,0.94-0.33,1.61-0.64
			c1.93-0.9,3.38-2.44,2.39-4.55c-0.93-1.98-3-2.01-5.04-1.06l-1.54,0.72L447.27,543.76z"/>
	</g>
	<g>
		<path class="st0" d="M471.53,523.26c2.83,4.74,1.46,8.95-2.04,11.04c-3.62,2.16-7.84,0.86-10.32-3.31
			c-2.61-4.37-1.61-8.84,2.05-11.02C464.97,517.75,469.1,519.18,471.53,523.26z M461.04,529.83c1.75,2.94,4.91,4.63,7.69,2.97
			c2.8-1.67,2.84-5.21,0.98-8.33c-1.63-2.73-4.76-4.74-7.7-2.99C459.08,523.22,459.24,526.81,461.04,529.83z"/>
	</g>
	<g>
		<path class="st0" d="M493.82,516.5c-0.54,0.82-1.66,2.36-3.37,3.66c-1.93,1.46-3.88,2.16-6.03,1.91c-1.9-0.23-3.87-1.42-5.37-3.41
			c-2.86-3.82-2.37-8.58,1.89-11.8c1.47-1.11,2.87-1.66,3.61-1.81l0.62,1.64c-0.91,0.21-1.95,0.61-3.23,1.58
			c-3.09,2.34-3.65,5.8-1.22,9c2.45,3.24,5.84,3.68,8.81,1.44c1.07-0.81,1.69-1.52,1.93-2l-2.88-3.81l-2.58,1.96l-1.01-1.33
			l4.19-3.17L493.82,516.5z"/>
	</g>
	<g>
		<path class="st0" d="M507.63,494.19c3.8,4,3.39,8.41,0.44,11.22c-3.05,2.9-7.46,2.56-10.8-0.96c-3.5-3.69-3.51-8.27-0.43-11.2
			C500.01,490.25,504.36,490.74,507.63,494.19z M498.84,502.9c2.36,2.48,5.81,3.43,8.16,1.2c2.37-2.25,1.63-5.71-0.88-8.34
			c-2.19-2.31-5.68-3.58-8.17-1.22C495.48,496.89,496.42,500.35,498.84,502.9z"/>
	</g>
	<g>
		<path class="st0" d="M511.07,481.5l-3.17,3.67l-1.33-1.15l7.72-8.93l1.33,1.15l-3.19,3.69l10.79,9.33l-1.36,1.57L511.07,481.5z"/>
	</g>
	<g>
		<path class="st0" d="M520.12,461.4l0.48,4.07l-1,1.38l-0.95-3.42L520.12,461.4z M528.19,475.15l3.1,4.3l-1.25,1.72l-9.76-13.81
			l1.46-2.01l16.15,5.03l-1.29,1.78l-5.08-1.59L528.19,475.15z M529.96,469.97l-4.65-1.45c-1.06-0.33-1.96-0.7-2.85-1.05l-0.03,0.04
			c0.63,0.75,1.26,1.53,1.87,2.36l2.83,3.99L529.96,469.97z"/>
	</g>
	<path class="st0" d="M452.07,388.77c15.63-9.64,26.07-26.92,26.07-46.59v-9.29c0-30.16-24.54-54.7-54.7-54.7h-50.34v53.71
		l28.31,36.92h-28.31v69.25h28.05v-41.19h21.78l31.6,41.19h35.35L452.07,388.77z M450.1,342.18c0,10.63-6.25,19.82-15.28,24.1
		l-33.66-43.89v-16.14h22.29c14.69,0,26.65,11.95,26.65,26.65V342.18z"/>
	<path class="st0" d="M321.54,278.19l-52.01,90.63h-32.58l-19.42,28.05h36.1l-23.33,41.19h32.3l23.38-41.19h17.66l28.62,41.19h34.19
		V278.19H321.54z M338.39,398.04l-20.19-29.22h-16.38l36.01-62.58h0.57V398.04z"/>
	<path class="st0" d="M359.59,109.18c-137.28,0-248.96,111.68-248.96,248.96c0,137.27,111.68,248.94,248.96,248.94
		S608.54,495.4,608.54,358.14C608.54,220.86,496.86,109.18,359.59,109.18 M359.59,591.4c-128.62,0-233.26-104.64-233.26-233.26
		c0-128.63,104.64-233.28,233.26-233.28c128.63,0,233.28,104.64,233.28,233.28C592.86,486.76,488.22,591.4,359.59,591.4"/>
	<polygon class="st0" points="385.47,229.18 348.06,164.69 372.33,150.62 417.86,229.11 	"/>
	<polygon class="st0" points="374.65,229.2 344.6,177.4 320.34,191.47 342.26,229.26 	"/>
	<polygon class="st0" points="331.47,229.28 316.94,204.23 292.68,218.3 299.08,229.35 	"/>
</g>
</svg>
