<svg id="Capa_1" data-name="Capa 1" xmlns="http://www.w3.org/2000/svg" viewBox="0 0 792 612"><defs><style>.cls-1{fill:#fff;}</style></defs><path class="cls-1" d="M146.38,357.46a312.65,312.65,0,0,1,4.94-58c2.48-13.32,5.34-26.58,8.26-39.82,2.69-12.18,5.66-24.29,8.6-36.42a57.35,57.35,0,0,1,2.42-7c2.68-6.92,8.12-10.36,15.14-11.52,6-1,11.81,0,17.49,1.81,6.16,2,9.19,6.6,9.67,12.88a38.12,38.12,0,0,1-4.06,20.61c-4.9,9.51-10,18.92-15,28.39-8.64,16.43-16.52,33.18-22.27,50.86-4.16,12.76-7.31,25.77-7.86,39.22-.32,7.58,0,15.21.47,22.8a110,110,0,0,0,4.15,24.8,46.67,46.67,0,0,0,6.51,14.28c3,4.17,6.73,7.31,12,8.25a13,13,0,0,0,11.42-3c4.18-3.67,6.75-8.38,8.76-13.44a89.93,89.93,0,0,0,5.37-23.39c1.89-16.84,1.13-33.67-.48-50.49-.45-4.66-1.52-9.33-.61-14a34.06,34.06,0,0,1,2.36-8.05c2.64-5.56,7.5-8.17,13.45-8.92a29,29,0,0,1,3.94-.25,10.11,10.11,0,0,1,9.75,6.38A25.72,25.72,0,0,1,243,323.48c.16,6.76.09,13.52.15,20.28,0,4.88,0,9.78,1.29,14.55a16.05,16.05,0,0,0,1.27,3.27,7.44,7.44,0,0,0,11.39,2.57,18.43,18.43,0,0,0,5.14-6.26,63.77,63.77,0,0,0,5.67-15,188.33,188.33,0,0,0,5.11-30.51c.92-9.69,1.21-19.4,1.17-29.13a214.32,214.32,0,0,0-4.71-41.63c-1.54-7.58-3-15.19-4.16-22.84a37.73,37.73,0,0,1-.14-9.26c.55-5.91,4.08-9.47,10.39-10.48a36.75,36.75,0,0,1,19.15,1.7c8.13,3.08,12.71,9.34,15.13,17.39s2.75,16.56,2.39,25c-.7,16.19-2.3,32.31-4.39,48.38-2.43,18.63-5.75,37.09-11.53,55-3.23,10-7.16,19.67-13.2,28.35a43.67,43.67,0,0,1-9.1,9.75c-13.07,10.09-27.65,4.54-34.88-4.19-.45-.54-.85-1.12-1.31-1.66a2,2,0,0,0-2.63-.72,6.34,6.34,0,0,0-1.68,2.19c-.17.27,0,.73,0,1.11a308.61,308.61,0,0,1-1.21,40.68c-1.22,12.49-3.21,24.85-7.61,36.7a50.68,50.68,0,0,1-9.22,16.33c-8.26,9.32-20.33,11.45-31.3,5.52a39.1,39.1,0,0,1-12.41-11.08c-6.18-8.14-10.23-17.35-13.5-26.94a210.73,210.73,0,0,1-8.78-38.5A327.62,327.62,0,0,1,146.38,357.46ZM306.57,243.18l.42,0c-.43-5.24-.71-10.49-1.32-15.71a53.61,53.61,0,0,0-3.74-14.82c-.45-1.06-1.1-1.8-2.37-1.34-1,.37-1.24,1.28-.7,2.61a61.19,61.19,0,0,1,3.71,15.7,115.33,115.33,0,0,1,.63,21.1c-.1,1.53.45,2.32,1.54,2.4s1.8-.73,1.82-2.32C306.59,248.25,306.57,245.71,306.57,243.18Zm-.78,18.44c-.46-.39-1-1.12-1.64-1.3-1-.27-1.68.44-1.83,1.45-.59,3.89-1.14,7.78-1.69,11.67a1.59,1.59,0,0,0,1.3,2,1.52,1.52,0,0,0,1.95-1.34C304.53,270.08,305.11,266.06,305.79,261.62Z"/><path class="cls-1" d="M531.42,522.26q29.46-.12,45-25.12c5.53-8.92,8.83-18.72,11.18-28.87.08-.32.15-.64.26-.95a3.68,3.68,0,0,1,3.9-2.78,3.44,3.44,0,0,1,2.84,3.68c-.14,2.9-.71,5.77-.92,8.66-.68,9-1.55,18.09.63,27.06a28.52,28.52,0,0,0,5.26,10.95c2.85,3.69,2.33,8.17-1.35,10.94C582.88,537.42,566.06,546,547.12,550c-16.76,3.53-33.07,2.31-48.56-5.51-11.24-5.68-20-14.18-27.35-24.27-7.93-10.91-13.63-23-18.56-35.45-2.14-5.41-4.16-10.86-6.24-16.29a27.59,27.59,0,0,0-6.15-10,12.28,12.28,0,0,0-2.19-1.75c-2.71-1.69-5.07-1.08-6.6,1.74a14.91,14.91,0,0,0-2,8c.35,5.71.72,11.44,1.55,17.09,2.7,18.54,6.63,36.85,11.08,55,2.74,11.19-6.82,21.2-18.39,18a21,21,0,0,1-15.42-19.32c-.62-15.7-.1-31.38.83-47,.86-14.39,1.81-28.78,2.94-43.15,1-12.92,2.28-25.82,3.54-38.72,1.16-11.82,2.48-23.62,3.72-35.44a4,4,0,0,1,4.14-3.91,30.32,30.32,0,0,1,4.37.05c2.14.22,2.92,1.36,2.6,3.5-.21,1.44-.55,2.86-.64,4.31a2.52,2.52,0,0,0,.66,1.9c.81.63,1.3-.24,1.78-.82,3.89-4.78,9.05-7.69,14.75-9.7,6-2.13,12.18-3.08,18.55-1.87C474.27,368,480,374.11,481,382.91c1.18,10.08-1,19.61-5,28.79-5.48,12.59-14,22.93-24.14,32-4.72,4.24-5.09,9.45-1.17,14.44,8,10.11,15.81,20.31,23.72,30.46A126.14,126.14,0,0,0,492.49,508C503.89,517.57,516.22,522.11,531.42,522.26Zm-77.36-145,0,.18c-.28,0-.57,0-.85,0-.94,0-1.88.08-2.81.17-9.07.92-16,5.07-20,13.47a40.65,40.65,0,0,0-2.22,6.8c-1.47,5.42-2.43,10.9-1.56,16.55.8,5.22,3.41,8,8.51,9.2a21.07,21.07,0,0,0,15.94-2.8c7.45-4.42,12.52-10.93,15.95-18.78a27.58,27.58,0,0,0,2.54-13.55c-.44-5.25-3.57-9.12-8.68-10.32C458.65,377.69,456.33,377.59,454.06,377.29ZM475,384.68l-.25,0a12.53,12.53,0,0,0,.05,2.53c.1.47.65.85,1,1.27.38-.38,1.07-.74,1.1-1.14.28-4.17,0-8.28-2.06-12-2.47-4.54-6.48-6.62-11.52-6.8-.45,0-.93.64-1.4,1a7.27,7.27,0,0,0,1.29,1.14,4.12,4.12,0,0,0,1.38.21,10.35,10.35,0,0,1,9.1,7.5A57.69,57.69,0,0,1,475,384.68Zm-16.94-16,0-.11c-1.62.27-3.25.48-4.83.87-.43.11-.7.81-1.05,1.24.46.3.93.87,1.37.85a45.23,45.23,0,0,0,5.43-.67,1.5,1.5,0,0,0,.95-1.1c0-.37-.61-.77-1-1.06C458.64,368.53,458.29,368.64,458,368.64Z"/><path class="cls-1" d="M383.5,191.06c.09-13.4-2-26.54-4.83-39.6-2.93-13.46-5-27.05-5.22-40.87-.08-6.16.29-12.31,2.24-18.23a25.55,25.55,0,0,1,2.33-5.1A12.19,12.19,0,0,1,388.57,81c5.66-.23,11.28-.16,16.75,1.51s9.36,4.8,9.88,10.77a36.36,36.36,0,0,1-.57,8.11c-1.79,12.69-3.76,25.35-5.48,38Q406.89,156.22,405,173c-1.12,10.13-2.06,20.27-2.93,30.43s-1.37,20.05-2.34,30.05a75,75,0,0,1-2.45,11.38,11.43,11.43,0,0,1-2,3.71c-1.6,2.16-3.72,2.6-5.91,1.06a15.59,15.59,0,0,1-4.14-4A117.78,117.78,0,0,1,378,233.39a247.39,247.39,0,0,1-14.4-37.54,32.73,32.73,0,0,0-1.25-3.43,3.47,3.47,0,0,0-3.36-2.33,2.81,2.81,0,0,0-2.82,2.14,74.54,74.54,0,0,0-3,10.06c-1.09,5.75-1.63,11.62-2.66,17.39a67.75,67.75,0,0,1-2.49,8.77,12.66,12.66,0,0,1-1.63,3.11c-2.31,3.43-5.25,4-8.28,1.22a30.27,30.27,0,0,1-5.48-6.72c-2.61-4.34-5-8.83-7.15-13.4a418,418,0,0,1-25.74-68.1,131.7,131.7,0,0,1-4.8-25,33.17,33.17,0,0,1,1.06-12.42c2.75-8.93,8.56-14.45,17.86-16.12a43.26,43.26,0,0,1,21.42,1.38c4.36,1.42,6.52,4.48,7.13,8.86A31.11,31.11,0,0,1,341,114.5c-1.85,6.15-4.07,12.18-6,18.31a207.63,207.63,0,0,0-7.53,33.89,72,72,0,0,0,4.78,37.55,28.88,28.88,0,0,0,4.22,6.58c1.12,1.44,2.39,1.24,3-.51a80.52,80.52,0,0,0,2.63-10c1.62-8.57,3-17.19,4.56-25.77.27-1.46.9-2.86,1.32-4.3,1.62-5.65,8.11-6.58,11.84-4.67a11.58,11.58,0,0,1,6.22,7.11c1.71,5.65,3.29,11.35,5.11,17,1.24,3.83,2.7,7.6,4.25,11.31a22.22,22.22,0,0,0,2.82,4.69c.53.7,1.68,1.58,2.3,1.42a3.36,3.36,0,0,0,1.83-2.17,35.87,35.87,0,0,0,1.14-6.49C383.64,196,383.5,193.5,383.5,191.06Z"/><path class="cls-1" d="M515.91,305.72a158.15,158.15,0,0,0,2.49,26,11.12,11.12,0,0,1,.19,1.81,3.31,3.31,0,0,1-3,3.45c-4.21.36-8.42.72-12.64.91-3.63.17-5.33-1.36-5.59-5-.58-8-1.05-15.93-1.57-23.9-.72-11.1-1.46-22.21-2.15-33.32a39.27,39.27,0,0,1-.08-7.43c.41-3.13,2.52-5.15,5.49-6.2a15,15,0,0,1,1.5-.38c3.64-.88,4.65-.32,5.83,3.21a3.41,3.41,0,0,0,4.9,2,5,5,0,0,0,1.52-1.22,49.53,49.53,0,0,1,16.83-13A108.62,108.62,0,0,1,554,243.82c13.56-2.93,24.59,1.49,33.18,12.21,6.09,7.62,9.63,16.48,12.27,25.75a156.32,156.32,0,0,1,4.8,27.85c1.22,12.66,2.26,25.34,3.73,38a103.53,103.53,0,0,0,7.48,28.78c1.08,2.53-.05,4.34-2.87,4.36a66.5,66.5,0,0,1-8.59-.37c-5.9-.74-11.79-1.67-17.67-2.62-4.71-.76-8.1-3.52-10.63-7.44-2.83-4.36-4.33-9.23-5.5-14.23-2.43-10.36-2.95-20.9-3.08-31.48a245.67,245.67,0,0,0-1.71-28.95c-.93-7.14-2.28-14.18-5.36-20.77a33,33,0,0,0-1.89-3.45c-4.64-7.3-11.21-9.92-19.61-7.87-9.49,2.32-15.42,8.52-18.85,17.38-2.91,7.51-3.72,15.37-3.76,23.36C515.91,304.78,515.91,305.25,515.91,305.72Zm50.92-57.79c-.47.53-1.18,1-1.38,1.62-.28.92.41,1.45,1.25,1.9a44.5,44.5,0,0,1,6.55,3.76c5.32,4.06,9,9.49,12.13,15.33a98.08,98.08,0,0,1,8.19,21.64c.29,1.09.82,2,2.14,1.71,1.07-.2,1.46-1.19,1.08-2.6-.5-1.81-1-3.62-1.54-5.41-3-9.41-6.77-18.39-12.9-26.22A35.26,35.26,0,0,0,569.9,249.1C569,248.68,568.08,248.4,566.83,247.93Zm-8.4-.77a38.77,38.77,0,0,0-12.2,2.94c-1,.47-1.52,1.19-1.1,2.24a1.6,1.6,0,0,0,2.34.84,14.18,14.18,0,0,1,2.51-.9q4.8-.94,9.65-1.73c1.07-.18,1.82-.54,1.84-1.71s-.73-1.55-1.72-1.68C559.43,247.12,559.1,247.16,558.43,247.16Z"/><path class="cls-1" d="M276.76,478.94c-.13.78-.31,1.55-.39,2.33-.87,8.18-1.91,16.34-4.58,24.15a34.81,34.81,0,0,1-3.94,8.2c-3,4.42-7.53,4.58-11.17.69-2.54-2.7-3.9-6.06-5.06-9.49a102,102,0,0,1-4.23-20.22c-3-24.56-2.78-49.22-2.18-73.88a9.89,9.89,0,0,1,1-3.91,5,5,0,0,1,5-3.2c4.3.31,8.58.79,12.87,1.26,2.19.25,4.36.66,6.54,1,3.68.51,6,3.63,4.93,7.19a21,21,0,0,1-2.86,5.74c-2.68,3.91-5.71,7.58-8.38,11.49-4,5.82-7.23,12-8.38,19.05a39.78,39.78,0,0,0,1.27,19.61,17.89,17.89,0,0,0,2.33,4.46,8.21,8.21,0,0,0,2.87,2.39c2.1,1.08,3.62.65,4.46-1.55,1.23-3.18,2.06-6.51,3.06-9.77.93-3.05,1.68-6.16,2.83-9.12,2-5.23,5.72-4.9,9.35-1.54,2.32,2.13,3.15,5.12,3.51,8.12.53,4.52.74,9.08,1.18,13.61.39,4,.87,7.92,1.39,11.87a9.38,9.38,0,0,0,.83,2.53c.58,1.32,1.32,2.6,3,2.49s2.32-1.39,2.65-2.73a21.78,21.78,0,0,0,.85-5.4c-.12-7.32-.28-14.64-.69-22-.65-11.81-1.67-23.62-.92-35.47a70.54,70.54,0,0,1,1.22-10.05c1.37-6.62,6-10.42,12.12-12.25,4.85-1.44,9.86-2.32,14.81-3.4,2.6-.57,4.12,1.28,3.34,4-2,7-4.14,14-6,21.1-4.31,16.09-8.33,32.25-11.32,48.64-1.27,6.92-1.88,14-3,20.9-.95,5.87-2.17,11.71-3.37,17.54a16.76,16.76,0,0,1-1.5,3.93c-1.76,3.54-4.06,4.48-7.89,3.38a11.5,11.5,0,0,1-6.42-5,36.07,36.07,0,0,1-5.2-14.32c-1.14-6.75-1.94-13.56-2.89-20.34-.1-.69-.28-1.38-.42-2.07Z"/><path class="cls-1" d="M348.56,455.65a99.62,99.62,0,0,0-10.09.75c-8.29,1.45-13,7.25-13,15.69a28.87,28.87,0,0,0,6,18.25,16.48,16.48,0,0,0,15.59,6.59c3.88-.47,6.59-3,8.88-6,3.37-4.35,5.45-9.39,7.62-14.39,1.68-3.87,3.41-7.72,5.25-11.51a12.2,12.2,0,0,1,5.27-5.53c4.36-2.32,7.89-.32,7.72,4.6a89.93,89.93,0,0,1-1.18,11.2c-1,6.24-2.21,12.46-3.34,18.69l-.06.27a16.67,16.67,0,0,1-9.89,12.29c-8.17,3.85-16.61,6.29-25.67,5.74a43.55,43.55,0,0,1-10.74-2c-6.77-2.2-10.48-7.45-12.48-14s-2.15-13.62-1.57-20.53c1.71-20.49,7.9-39.88,15-59,2.15-5.79,4.87-11.38,7.58-16.93a26.87,26.87,0,0,1,7-8.93,15.84,15.84,0,0,1,3.36-2.29c6.6-3,13.14-6.24,19.9-8.89,5.72-2.24,11.53-1.16,16.89,1.54,3.66,1.84,4.66,5.47,4.76,9.31A45.65,45.65,0,0,1,389,404.92c-3.09,10.23-6.35,20.42-9.5,30.63-.87,2.83-1.67,5.68-2.33,8.55a11.93,11.93,0,0,1-6.64,8.26,31.53,31.53,0,0,1-11.64,3.05c-3.41.31-6.84.39-10.27.58Zm29.7-50c.1-6.91-3-11.5-8.2-13.73-4.72-2-8.58-1.31-12.59,2.91a36.85,36.85,0,0,0-5.73,7.78,129.21,129.21,0,0,0-10.82,28.33,36.09,36.09,0,0,0-1.15,5.5c-.25,2.53,1.51,3.65,3.76,2.51,2.85-1.44,5.71-2.85,8.5-4.41,7-3.88,13.55-8.28,18.93-14.25C375.15,415.64,378.15,410.43,378.26,405.65Z"/><path class="cls-1" d="M553.94,452.15c-.31-14.18-.64-28.36-.9-42.55a26.8,26.8,0,0,1,.53-5.86c.53-2.55,2.27-3.63,4.81-3.13a25.36,25.36,0,0,1,9,3.45c2.19,1.43,3.53,3.32,3.26,6.11A4.38,4.38,0,0,0,571,412c.56,1.58,1.48,3,3.26,3.15s2.68-1.28,3.47-2.64c1.55-2.67,2.76-5.61,4.68-8,5.71-7,16.16-9.29,24.5-5.82,4.7,1.95,7.47,5.46,8.95,10.2a55.7,55.7,0,0,1,2.43,16.38c.06,9.87-.17,19.73-.37,29.59-.16,8.45-.83,16.91.21,25.34a34.53,34.53,0,0,0,1.74,7.06,4.66,4.66,0,0,0,5.2,3.22,12.14,12.14,0,0,0,7.3-2.6c3.17-2.73,9.71-1.75,10.61,3.83a68.33,68.33,0,0,0,2.33,9.56c1.44,4.55-1.66,7.53-5.26,8-5.16.71-10.32,1.4-15.48,2.14a18.15,18.15,0,0,1-9.11-1.15c-5.85-2.24-9-6.79-10.82-12.53A43.76,43.76,0,0,1,602.68,484c.14-8.36.51-16.71.92-25.06.47-9.39,1-18.79-1-28.07a35.37,35.37,0,0,0-2.46-7.45c-3.92-8.32-13.55-9.43-19.52-2.34a24.71,24.71,0,0,0-4.8,10.54,78.42,78.42,0,0,0-1.73,21c.29,7.88.55,15.79,1.39,23.62,1.06,9.79-3.15,17.26-9.32,24.12a6.58,6.58,0,0,1-5.67,2.23,5.63,5.63,0,0,1-5.54-5.74q-.51-22.33-1-44.67ZM615,417.92l-.25-.26c-.11-.79-.21-1.58-.33-2.36a17.36,17.36,0,0,0-15.85-15.23c-.87-.08-1.75-.08-1.85,1s.8,1.15,1.65,1.24a14.57,14.57,0,0,1,13.31,11.14,38.14,38.14,0,0,1,.77,4.42c.12.78.3,1.68,1.26,1.48C614.23,419.22,614.58,418.41,615,417.92Zm-.25,10.39h0c0-1.45.08-2.9,0-4.34,0-.46-.61-.87-.94-1.3-.4.42-1.12.81-1.14,1.24-.11,2.94-.12,5.89,0,8.83,0,.45.72.88,1.1,1.32.35-.46,1-.91,1-1.4C614.85,431.22,614.76,429.76,614.76,428.31Z"/><path class="cls-1" d="M486,410.53c.22-11.18.41-21.32.64-31.46.1-4.09,2.28-6.42,6.33-6.91,5.81-.72,10.36,1.65,11.81,6.51a15.55,15.55,0,0,1,.35,6c-1.77,15.93-2.95,31.9-2.35,47.94.29,7.89.93,15.77,3.62,23.28a26.53,26.53,0,0,0,3.37,6.6c4.18,5.75,11.56,5.76,15.93.16,2.73-3.5,3.89-7.67,4.71-11.93,1.67-8.74,1.64-17.57,1.25-26.4A348,348,0,0,0,526.26,379c-.72-4,1.72-6.91,5.81-7a13.25,13.25,0,0,1,13.8,13.16c-.16,14.37-.27,28.75-1,43.1a149,149,0,0,1-6.38,38.09,50,50,0,0,1-6.91,14.56c-2.93,4-6.53,7.24-11.62,8-8.42,1.31-15.47-1.34-20.95-7.93-4.28-5.15-6.61-11.28-8.65-17.56a85.26,85.26,0,0,1-3.94-25.21C486.3,428.67,486.15,419.08,486,410.53Z"/><path class="cls-1" d="M474.46,122.27c-.25,4.6-.53,9.19-.75,13.79-.11,2.32.9,3.06,3.15,2.42s4.6-1.32,6.9-2,3.5.25,3.52,2.69c0,2.25,0,4.51,0,6.76,0,2.64-1.65,3.95-4.24,3.51-.87-.15-1.75-.32-2.64-.41-2.71-.25-4.77.88-5.62,3.46a20.4,20.4,0,0,0-1,5.64q-1,28.5-1.93,57-.48,15.13-.79,30.28c0,2.28-.67,4-2.65,5.21-4.1,2.46-8.13,5.05-12.33,7.33a14.61,14.61,0,0,1-5.5,1.49,4.11,4.11,0,0,1-4.71-4.13,39,39,0,0,1,.12-6.75c1.59-14.65,3.09-29.31,4.94-43.93,1.9-15.13,4.17-30.21,6.26-45.32a18.25,18.25,0,0,0,.23-3.21,1.89,1.89,0,0,0-2.59-1.93,29.82,29.82,0,0,0-4.32,1.66c-4.53,2-9,4.24-13.56,6.19a29.33,29.33,0,0,1-6.21,1.73c-2.89.5-4.19-.73-4-3.63A34.43,34.43,0,0,1,429,148.65c1-2.38,2.47-4.36,5.26-4.81a11.65,11.65,0,0,1,2-.07,123.38,123.38,0,0,0,20-1.79,2.26,2.26,0,0,0,2-2.21q1.27-12.11,2.55-24.22c.24-2.19.43-4.41.88-6.56.68-3.26,2.37-5.9,5.78-6.8,4.41-1.16,7.84,1.6,7.74,6.16-.07,3.19-.31,6.38-.48,9.56C474.64,119.37,474.55,120.82,474.46,122.27Z"/><path class="cls-1" d="M402.9,334.55c-.32-10.72-.9-22.35-3-33.83a98.31,98.31,0,0,0-3.11-11.51,12.38,12.38,0,0,0-2.35-3.78,2.93,2.93,0,0,0-3.45-.85,6.64,6.64,0,0,0-4.88,6.08c-.18,1.86-.06,3.75-.09,5.62a21.87,21.87,0,0,1-.09,2.81,4.07,4.07,0,0,1-5,3.69,2.8,2.8,0,0,1-2.45-2,23,23,0,0,1-.8-4.26c-.19-2.24-.08-4.51-.34-6.74a10.11,10.11,0,0,0-1.29-3.52,3.4,3.4,0,0,0-6.36.76,78.56,78.56,0,0,0-1.91,8.78,116.19,116.19,0,0,0,.16,27.83c1,9.05,2.25,18.07,3.41,27.1.45,3.57-1.27,5.58-4.85,5.59-2.63,0-5.26,0-7.89,0-2.94,0-4.78-2-4.42-4.92,2.47-20,2.31-40,1.66-60.08-.36-11.12-1.24-22.22-1.91-33.33-.08-1.4-.36-2.79-.45-4.19-.26-3.69,1.41-5.44,5.08-5.45h4.37c2.83,0,4.73,1.15,5.25,3.91a51.21,51.21,0,0,1,.52,8.51,27.38,27.38,0,0,1-.5,3.9,4,4,0,0,0,2.76,4.66,10.48,10.48,0,0,1,5.51,4.36c2,2.83,4.05,3.18,6.94,1.21,1.44-1,3-1.85,4.29-3,4.57-3.84,14.41-4.06,20.06,1.25,4,3.78,6.52,8.43,8.46,13.47a106.09,106.09,0,0,1,5.57,23.5c1,7,2,14,2.67,21.08a80.83,80.83,0,0,1-.1,11.22A4.12,4.12,0,0,1,421.6,346c-4.48,2.06-9,4-13.87,5-.18,0-.37.08-.55.1-3.67.47-4.38-.25-4.3-3.92C403,343.27,402.9,339.37,402.9,334.55Z"/><path class="cls-1" d="M500,218.45c0,2,0,4,0,6.06a8,8,0,0,1-3.37,6.78c-1,.74-2,1.47-2.95,2.19a4.76,4.76,0,0,1-5.3.42,4.56,4.56,0,0,1-2.58-4.63c.43-6.75.8-13.5,1.36-20.24.72-8.8,1.59-17.58,2.41-26.37.67-7.2,1.44-14.39,2-21.59.54-6.65.91-13.31,1.34-20,.39-6.09.62-12.2,1.18-18.27a19.52,19.52,0,0,1,4.38-11c2.78-3.29,6.23-5.12,10.67-4.26a6.76,6.76,0,0,1,5.68,7c-.1,4.23-1.41,8.22-2.74,12.17-2.93,8.76-6,17.46-8.91,26.24a67.75,67.75,0,0,0-1.87,8.64c-.09.51.34,1.13.53,1.69.43-.4,1-.73,1.26-1.23,4.65-9.81,17.07-15.86,27.18-13.22a14,14,0,0,1,8.9,6.63,50.15,50.15,0,0,1,5.51,14.84c1.74,7.78,3.24,15.62,4.84,23.43.21,1,.46,2,.65,3a5.51,5.51,0,0,1-2.07,5.78A41.07,41.07,0,0,1,537,208.89c-4.87,1.66-7.45.11-8.3-5-.71-4.28,0-8.51.44-12.77.44-4.75.75-9.52,1-14.3a8.9,8.9,0,0,0-.74-3.4,6,6,0,0,0-5.51-4.15,15.22,15.22,0,0,0-14.4,6.58c-3.37,4.65-5.12,10-6.43,15.49A133.5,133.5,0,0,0,500,218.45Zm-4.44-73.35c.44.39.84,1.06,1.34,1.15.9.15,1.1-.62,1.15-1.39.26-4.12.51-8.24.79-12.35.44-6.51,1.11-12.93,5.94-18a1.35,1.35,0,0,0,0-1.33,1.36,1.36,0,0,0-1.32-.19,6.19,6.19,0,0,0-1.62,1.53,18.83,18.83,0,0,0-4,9.31C496.83,130.78,496.28,137.79,495.55,145.1Zm1.91,7.24h0a5.28,5.28,0,0,0,.08-1.67,5.4,5.4,0,0,0-.94-1.44c-.4.4-1.12.78-1.16,1.22q-.65,6.92-1,13.86c0,.49.66,1,1,1.52.4-.48,1.09-.93,1.14-1.44C496.92,160.38,497.17,156.36,497.46,152.34Z"/><path class="cls-1" d="M490.87,324.67c0,3.15,0,6.29,0,9.44,0,2.1-.72,3.15-2.8,3.58a15.38,15.38,0,0,1-4,.42c-7.12-.44-14.25-.82-21.34-1.55a80.66,80.66,0,0,1-14.11-2.41c-10.68-3.09-17.77-10-20.34-21a24.74,24.74,0,0,1,1.35-14.91A54.94,54.94,0,0,1,446.4,275a25.1,25.1,0,0,1,20.53-5.18c6.95,1.15,10.83,6.23,10.56,13.42-.43,11.81-7.19,19.87-18.75,22.25a54.92,54.92,0,0,1-6.27.85,6.27,6.27,0,0,0-6.11,6.71,6,6,0,0,0,6.45,6c9.6-.34,18.51-2.87,26.26-8.79,2.25-1.72,4.62-2.26,7.22-1.06a6,6,0,0,1,3.75,5.66c.07,3.29,0,6.57,0,9.86ZM449.21,302l.09.3a76.5,76.5,0,0,0,8.39-2.18A17.12,17.12,0,0,0,468.48,289c1.22-3.77-.24-7.08-3.72-8.46-3.71-1.46-7.35-1-10.21,1.75a65.31,65.31,0,0,0-6.84,8.18,14.45,14.45,0,0,0-2.83,8.42,2.88,2.88,0,0,0,2.93,3.1C448.27,302,448.74,302,449.21,302Z"/><path class="cls-1" d="M349.64,313.65c.2,9.22-.23,18.41-2.84,27.33a77.48,77.48,0,0,1-3.11,8,19.23,19.23,0,0,1-1.5,2.54c-3.11,5.09-7.7,6.63-13.41,5.73a15.67,15.67,0,0,1-11.23-7.7,37.08,37.08,0,0,1-4.76-13.45c-1.74-9.68-1.64-19.44-1-29.21a99.39,99.39,0,0,1,3.79-22.58A35.52,35.52,0,0,1,321.74,272a15.4,15.4,0,0,1,6.43-4.9c4.23-1.61,8-1,11.23,2.34s5.17,7.68,6.58,12.14a91.32,91.32,0,0,1,3.63,22.74C349.77,307.44,349.64,310.55,349.64,313.65Zm-5.91,1.07c-.17-1.6-.34-4.47-.83-7.28-.7-4-2-7.73-5-10.64-4.22-4.07-10.14-3.83-13.91.65a12.65,12.65,0,0,0-2.53,4.17,53.28,53.28,0,0,0-2.32,9.66c-.71,6-.32,11.91,2.31,17.49a14.65,14.65,0,0,0,6.14,7,8.3,8.3,0,0,0,10.65-1.61,17.17,17.17,0,0,0,2.75-4C343.18,325.65,343.63,320.84,343.73,314.72Zm-.45-32.57c-.49-1.63-.79-3-1.29-4.21a12.46,12.46,0,0,0-8.12-7.8c-1.13-.35-2-.07-2.34,1.09s.33,1.78,1.34,2.08a9.29,9.29,0,0,1,6.06,6,26.18,26.18,0,0,0,1,3.07,2.34,2.34,0,0,0,1.8,1.08C342.25,283.42,342.77,282.61,343.28,282.15Z"/><path class="cls-1" d="M438.5,199.19c-.82,11.54-1.45,22.09-2.38,32.6a36.71,36.71,0,0,1-2.19,9.27c-2.17,6-8.52,7.36-13.28,3a12.82,12.82,0,0,1-4-8.74,79.08,79.08,0,0,1,0-11.1,266.57,266.57,0,0,1,3.86-30.7,87.57,87.57,0,0,1,5.09-18.39,16.69,16.69,0,0,1,2.14-3.77c2.59-3.25,6.74-2.83,8.38,1a21.3,21.3,0,0,1,1.74,6.9C438.24,186.2,438.32,193.19,438.5,199.19Z"/><path class="cls-1" d="M524.63,512a28.61,28.61,0,0,1-12.23-3.17c-4.17-2.1-8.2-4.51-12.24-6.88a6.59,6.59,0,0,1-3.15-5.09c-.45-3.48,2.32-5.72,5.6-4.43A50.58,50.58,0,0,0,517.89,496a37.4,37.4,0,0,0,12.54-1.35c5-1.38,9.52,1.1,10.6,5.82a8.4,8.4,0,0,1-6.93,10.27C531,511.27,527.79,511.6,524.63,512Z"/></svg>